<?xml version="1.0" encoding="UTF-8"?>
<svg xmlns="http://www.w3.org/2000/svg" xmlns:xlink="http://www.w3.org/1999/xlink" width="255pt" height="284.999983pt" viewBox="0 0 255 284.999983" version="1.2">
<g id="surface1">
<path style=" stroke:none;fill-rule:nonzero;fill:rgb(0.779724%,46.669006%,74.119568%);fill-opacity:1;" d="M 254.957031 0 L 0.0429688 0 L 22.535156 255.082031 L 127.5 285.09375 L 232.464844 255.082031 Z M 254.957031 0 "/>
<path style=" stroke:none;fill-rule:nonzero;fill:rgb(1.179504%,60.778809%,89.7995%);fill-opacity:1;" d="M 127.5 22.507812 L 127.5 261.835938 L 211.472656 237.828125 L 230.214844 22.507812 Z M 127.5 22.507812 "/>
<path style=" stroke:none;fill-rule:nonzero;fill:rgb(100%,100%,100%);fill-opacity:1;" d="M 195.726562 60.019531 L 127.5 60.019531 L 127.5 90.03125 L 164.238281 90.03125 L 161.988281 120.039062 L 127.5 120.039062 L 127.5 150.050781 L 160.488281 150.050781 L 158.238281 183.808594 L 127.5 194.3125 L 127.5 225.824219 L 186.730469 206.316406 L 191.980469 120.039062 Z M 195.726562 60.019531 "/>
<path style=" stroke:none;fill-rule:nonzero;fill:rgb(93.328857%,93.328857%,93.328857%);fill-opacity:1;" d="M 127.5 60.019531 L 127.5 90.03125 L 60.773438 90.03125 L 58.523438 60.019531 Z M 93.011719 120.039062 L 94.511719 150.050781 L 127.5 150.050781 L 127.5 120.039062 Z M 96.011719 165.054688 L 66.019531 165.054688 L 68.269531 206.316406 L 127.5 225.824219 L 127.5 194.3125 L 96.761719 183.808594 Z M 96.011719 165.054688 "/>
</g>
</svg>
