<?xml version="1.0" encoding="UTF-8"?>
<svg xmlns="http://www.w3.org/2000/svg" xmlns:xlink="http://www.w3.org/1999/xlink" width="254.25pt" height="234.749994pt" viewBox="0 0 254.25 234.749994" version="1.2">
<defs>
<clipPath id="clip1">
  <path d="M 0.292969 4 L 252.898438 4 L 252.898438 230 L 0.292969 230 Z M 0.292969 4 "/>
</clipPath>
</defs>
<g id="surface1">
<g clip-path="url(#clip1)" clip-rule="nonzero">
<path style=" stroke:none;fill-rule:nonzero;fill:rgb(0%,84.709167%,100%);fill-opacity:1;" d="M 207.816406 77.738281 C 205.207031 76.835938 202.5 75.984375 199.703125 75.179688 C 200.167969 73.304688 200.589844 71.453125 200.964844 69.636719 C 207.097656 39.78125 203.089844 15.730469 189.375 7.808594 C 176.21875 0.21875 154.710938 8.132812 132.988281 27.0625 C 130.898438 28.882812 128.800781 30.808594 126.714844 32.828125 C 125.316406 31.492188 123.925781 30.199219 122.539062 28.964844 C 99.769531 8.726562 76.953125 0.199219 63.25 8.140625 C 50.109375 15.757812 46.21875 38.367188 51.75 66.660156 C 52.285156 69.394531 52.910156 72.183594 53.613281 75.023438 C 50.382812 75.941406 47.265625 76.917969 44.285156 77.960938 C 17.59375 87.273438 0.546875 101.875 0.546875 117.023438 C 0.546875 132.660156 18.847656 148.355469 46.644531 157.871094 C 48.839844 158.621094 51.117188 159.328125 53.460938 160 C 52.699219 163.066406 52.039062 166.074219 51.484375 169.011719 C 46.210938 196.816406 50.328125 218.890625 63.429688 226.453125 C 76.964844 234.269531 99.683594 226.234375 121.800781 206.882812 C 123.554688 205.351562 125.304688 203.726562 127.058594 202.03125 C 129.34375 204.21875 131.617188 206.300781 133.875 208.25 C 155.300781 226.707031 176.464844 234.160156 189.550781 226.578125 C 203.070312 218.742188 207.472656 195.019531 201.761719 166.171875 C 201.328125 163.964844 200.816406 161.714844 200.253906 159.429688 C 201.851562 158.957031 203.414062 158.460938 204.941406 157.960938 C 233.84375 148.367188 252.644531 132.878906 252.644531 117.023438 C 252.644531 101.820312 235.046875 87.121094 207.816406 77.738281 Z M 201.554688 147.726562 C 200.175781 148.179688 198.757812 148.621094 197.320312 149.046875 C 194.128906 138.941406 189.828125 128.183594 184.546875 117.074219 C 189.582031 106.226562 193.714844 95.613281 196.816406 85.566406 C 199.398438 86.3125 201.898438 87.101562 204.3125 87.933594 C 227.640625 95.972656 241.871094 107.863281 241.871094 117.023438 C 241.871094 126.773438 226.507812 139.445312 201.554688 147.726562 Z M 191.195312 168.261719 C 193.726562 181.019531 194.082031 192.554688 192.40625 201.578125 C 190.910156 209.679688 187.886719 215.085938 184.152344 217.242188 C 176.207031 221.847656 159.21875 215.863281 140.902344 200.078125 C 138.796875 198.265625 136.679688 196.332031 134.5625 194.289062 C 141.664062 186.511719 148.761719 177.472656 155.695312 167.425781 C 167.875 166.351562 179.386719 164.574219 189.835938 162.160156 C 190.347656 164.238281 190.800781 166.269531 191.195312 168.261719 Z M 86.496094 216.445312 C 78.734375 219.195312 72.554688 219.273438 68.816406 217.113281 C 60.863281 212.519531 57.558594 194.792969 62.066406 171.023438 C 62.585938 168.300781 63.199219 165.5 63.90625 162.640625 C 74.234375 164.929688 85.664062 166.578125 97.878906 167.5625 C 104.855469 177.390625 112.164062 186.421875 119.519531 194.332031 C 117.914062 195.886719 116.308594 197.367188 114.714844 198.757812 C 104.933594 207.324219 95.136719 213.398438 86.496094 216.445312 Z M 50.132812 147.667969 C 37.839844 143.457031 27.6875 137.996094 20.730469 132.019531 C 14.476562 126.664062 11.320312 121.34375 11.320312 117.023438 C 11.320312 107.835938 25.007812 96.109375 47.832031 88.140625 C 50.601562 87.171875 53.5 86.261719 56.507812 85.40625 C 59.664062 95.679688 63.800781 106.425781 68.796875 117.28125 C 63.738281 128.300781 59.539062 139.21875 56.355469 149.617188 C 54.210938 148.996094 52.132812 148.347656 50.132812 147.667969 Z M 62.324219 64.589844 C 57.585938 40.347656 60.730469 22.0625 68.648438 17.472656 C 77.082031 12.585938 95.730469 19.554688 115.382812 37.027344 C 116.644531 38.144531 117.90625 39.3125 119.175781 40.523438 C 111.847656 48.398438 104.609375 57.363281 97.695312 67.132812 C 85.839844 68.230469 74.488281 70 64.054688 72.367188 C 63.398438 69.722656 62.820312 67.128906 62.324219 64.589844 Z M 171.058594 91.472656 C 168.566406 87.160156 166.007812 82.949219 163.398438 78.851562 C 171.441406 79.867188 179.144531 81.21875 186.378906 82.875 C 184.214844 89.84375 181.507812 97.132812 178.316406 104.609375 C 176.03125 100.261719 173.609375 95.878906 171.058594 91.472656 Z M 126.714844 48.230469 C 131.6875 53.617188 136.660156 59.632812 141.554688 66.160156 C 136.621094 65.925781 131.628906 65.804688 126.597656 65.804688 C 121.613281 65.804688 116.660156 65.925781 111.757812 66.152344 C 116.652344 59.6875 121.671875 53.679688 126.714844 48.230469 Z M 82.089844 91.546875 C 79.597656 95.875 77.222656 100.230469 74.972656 104.601562 C 71.835938 97.152344 69.152344 89.832031 66.960938 82.757812 C 74.152344 81.148438 81.824219 79.832031 89.816406 78.832031 C 87.167969 82.964844 84.585938 87.210938 82.089844 91.546875 Z M 90.046875 155.976562 C 81.789062 155.0625 74.003906 153.808594 66.8125 152.242188 C 69.039062 145.042969 71.78125 137.570312 74.984375 129.957031 C 77.242188 134.328125 79.625 138.683594 82.128906 143.023438 L 82.132812 143.023438 C 84.683594 147.441406 87.332031 151.757812 90.046875 155.976562 Z M 127.011719 186.570312 C 121.910156 181.058594 116.816406 174.957031 111.84375 168.398438 C 116.671875 168.585938 121.59375 168.6875 126.597656 168.6875 C 131.738281 168.6875 136.820312 168.566406 141.8125 168.351562 C 136.90625 175.027344 131.945312 181.136719 127.011719 186.570312 Z M 178.414062 129.574219 C 181.78125 137.265625 184.628906 144.699219 186.882812 151.777344 C 179.574219 153.445312 171.679688 154.785156 163.367188 155.789062 C 165.988281 151.640625 168.566406 147.351562 171.105469 142.945312 C 173.675781 138.488281 176.109375 134.019531 178.414062 129.574219 Z M 161.773438 137.558594 C 157.832031 144.402344 153.785156 150.929688 149.679688 157.089844 C 142.203125 157.625 134.476562 157.898438 126.597656 157.898438 C 118.75 157.898438 111.117188 157.664062 103.769531 157.179688 C 99.496094 150.941406 95.367188 144.394531 91.449219 137.621094 L 91.453125 137.621094 C 87.546875 130.867188 83.953125 124.054688 80.695312 117.28125 C 83.949219 110.496094 87.535156 103.675781 91.417969 96.933594 C 95.308594 90.175781 99.40625 83.65625 103.640625 77.453125 C 111.136719 76.882812 118.828125 76.585938 126.597656 76.585938 C 134.40625 76.585938 142.097656 76.886719 149.589844 77.457031 C 153.765625 83.621094 157.832031 90.117188 161.742188 96.875 C 165.691406 103.714844 169.324219 110.488281 172.605469 117.132812 C 169.335938 123.886719 165.710938 130.726562 161.773438 137.558594 Z M 183.988281 17.148438 C 192.4375 22.023438 195.714844 41.679688 190.410156 67.457031 C 190.074219 69.101562 189.691406 70.777344 189.277344 72.472656 C 178.816406 70.058594 167.464844 68.261719 155.578125 67.144531 C 148.644531 57.265625 141.464844 48.289062 134.257812 40.515625 C 136.199219 38.648438 138.136719 36.871094 140.058594 35.191406 C 158.671875 18.976562 176.070312 12.574219 183.988281 17.148438 Z M 126.597656 94.480469 C 139.023438 94.480469 149.109375 104.566406 149.109375 117.019531 C 149.109375 129.464844 139.023438 139.558594 126.597656 139.558594 C 114.167969 139.558594 104.085938 129.464844 104.085938 117.019531 C 104.085938 104.570312 114.167969 94.480469 126.597656 94.480469 Z M 126.597656 94.480469 "/>
</g>
</g>
</svg>
