<?xml version="1.0" encoding="UTF-8"?>
<svg xmlns="http://www.w3.org/2000/svg" xmlns:xlink="http://www.w3.org/1999/xlink" width="360pt" height="359.999987pt" viewBox="0 0 360 359.999987" version="1.2">
<g id="surface1">
<rect x="0" y="0" width="360" height="359.999987" style="fill:rgb(100%,100%,100%);fill-opacity:1;stroke:none;"/>
<rect x="0" y="0" width="360" height="359.999987" style="fill:rgb(100%,100%,100%);fill-opacity:1;stroke:none;"/>
<rect x="0" y="0" width="360" height="359.999987" style="fill:rgb(100%,100%,100%);fill-opacity:1;stroke:none;"/>
<rect x="0" y="0" width="360" height="359.999987" style="fill:rgb(96.859741%,87.449646%,11.759949%);fill-opacity:1;stroke:none;"/>
<path style=" stroke:none;fill-rule:nonzero;fill:rgb(0%,0%,0%);fill-opacity:1;" d="M 94.65625 300.839844 L 122.207031 284.175781 C 127.523438 293.597656 132.355469 301.570312 143.957031 301.570312 C 155.066406 301.570312 162.085938 297.210938 162.085938 280.308594 L 162.085938 165.277344 L 195.90625 165.277344 L 195.90625 280.785156 C 195.90625 315.816406 175.375 331.777344 145.40625 331.777344 C 118.339844 331.777344 102.632812 317.757812 94.65625 300.839844 "/>
<path style=" stroke:none;fill-rule:nonzero;fill:rgb(0%,0%,0%);fill-opacity:1;" d="M 214.285156 297.210938 L 241.832031 281.265625 C 249.089844 293.105469 258.511719 301.808594 275.175781 301.808594 C 289.195312 301.808594 298.140625 294.804688 298.140625 285.132812 C 298.140625 273.53125 288.957031 269.421875 273.488281 262.660156 L 265.035156 259.03125 C 240.625 248.640625 224.4375 235.601562 224.4375 208.039062 C 224.4375 182.671875 243.757812 163.335938 273.980469 163.335938 C 295.480469 163.335938 310.949219 170.832031 322.058594 190.40625 L 295.71875 207.324219 C 289.925781 196.929688 283.640625 192.824219 273.980469 192.824219 C 264.066406 192.824219 257.78125 199.109375 257.78125 207.324219 C 257.78125 217.476562 264.066406 221.582031 278.5625 227.867188 L 287.015625 231.484375 C 315.773438 243.816406 331.972656 256.375 331.972656 284.652344 C 331.972656 315.097656 308.054688 331.777344 275.90625 331.777344 C 244.492188 331.777344 224.199219 316.785156 214.285156 297.210938 "/>
</g>
</svg>
