<?xml version="1.0" encoding="UTF-8"?>
<svg xmlns="http://www.w3.org/2000/svg" xmlns:xlink="http://www.w3.org/1999/xlink" width="89.25pt" height="59.249999pt" viewBox="0 0 89.25 59.249999" version="1.2">
<defs>
<clipPath id="clip1">
  <path d="M 23 39 L 37 39 L 37 58.507812 L 23 58.507812 Z M 23 39 "/>
</clipPath>
</defs>
<g id="surface1">
<g clip-path="url(#clip1)" clip-rule="nonzero">
<path style=" stroke:none;fill-rule:nonzero;fill:rgb(6.269836%,36.859131%,52.549744%);fill-opacity:1;" d="M 24.644531 56.550781 C 24.117188 56.550781 23.648438 56.515625 23.25 56.457031 L 23.25 58.195312 C 24.066406 58.519531 24.742188 58.683594 25.296875 58.683594 C 27.367188 58.683594 29.277344 57.425781 31.019531 54.902344 C 33.246094 51.636719 35.046875 46.390625 36.414062 39.183594 L 33.234375 39.183594 C 32.664062 43.609375 31.660156 47.707031 30.214844 51.457031 C 30.316406 50.707031 30.066406 49.386719 29.472656 47.5 L 26.84375 39.183594 L 23.550781 39.183594 L 27.21875 50.308594 C 27.773438 51.976562 28.050781 53.089844 28.050781 53.636719 C 28.050781 54.421875 27.695312 55.132812 26.984375 55.765625 C 26.390625 56.285156 25.613281 56.550781 24.644531 56.550781 Z M 24.644531 56.550781 "/>
</g>
<path style=" stroke:none;fill-rule:nonzero;fill:rgb(87.059021%,54.119873%,1.179504%);fill-opacity:1;" d="M 71.472656 34.074219 L 71.472656 53.5625 L 80.984375 53.5625 L 80.984375 51.164062 L 74.671875 51.164062 L 74.671875 34.074219 Z M 71.472656 34.074219 "/>
<path style=" stroke:none;fill-rule:nonzero;fill:rgb(6.269836%,36.859131%,52.549744%);fill-opacity:1;" d="M 4.785156 38.019531 L 4.820312 38.019531 L 9.882812 53.5625 L 12.433594 53.5625 L 17.53125 38.019531 L 17.5625 38.019531 C 18.09375 42.882812 18.429688 48.058594 18.535156 53.5625 L 21.898438 53.5625 C 21.742188 47.675781 21.226562 41.175781 20.351562 34.074219 L 16.394531 34.074219 L 11.523438 48.398438 L 11.492188 48.398438 L 6.664062 34.074219 L 2.507812 34.074219 C 1.71875 40.132812 1.222656 46.636719 1.023438 53.5625 L 4.078125 53.5625 C 4.175781 47.863281 4.414062 42.683594 4.785156 38.019531 Z M 4.785156 38.019531 "/>
<path style=" stroke:none;fill-rule:nonzero;fill:rgb(87.059021%,54.119873%,1.179504%);fill-opacity:1;" d="M 68.570312 43.453125 C 68.570312 37.007812 65.972656 33.777344 60.777344 33.777344 C 58.230469 33.777344 56.242188 34.597656 54.808594 36.234375 C 53.253906 38.023438 52.472656 40.660156 52.472656 44.144531 C 52.472656 47.570312 53.160156 50.085938 54.550781 51.6875 C 55.816406 53.132812 57.722656 53.855469 60.273438 53.855469 C 61.226562 53.855469 62.101562 53.738281 62.894531 53.507812 L 67.6875 56.230469 L 68.988281 54.039062 L 68.976562 54.039062 L 65.304688 52.277344 C 65.628906 52.007812 65.945312 51.722656 66.226562 51.398438 C 67.792969 49.609375 68.570312 46.960938 68.570312 43.453125 Z M 60.601562 51.441406 C 58.992188 51.441406 57.820312 50.851562 57.066406 49.679688 L 57.074219 49.660156 C 56.261719 48.394531 55.855469 46.347656 55.855469 43.542969 C 55.855469 38.632812 57.386719 36.179688 60.449219 36.179688 C 62.050781 36.179688 63.230469 36.769531 63.980469 37.941406 C 64.789062 39.214844 65.195312 41.238281 65.195312 44.015625 C 65.195312 48.960938 63.660156 51.441406 60.601562 51.441406 Z M 60.601562 51.441406 "/>
<path style=" stroke:none;fill-rule:nonzero;fill:rgb(87.059021%,54.119873%,1.179504%);fill-opacity:1;" d="M 48.757812 44.058594 C 48.757812 44.058594 45.886719 42.453125 44.464844 41.695312 C 42.902344 40.847656 42.054688 39.855469 42.054688 38.703125 C 42.054688 37.949219 42.398438 37.335938 42.953125 36.855469 C 43.503906 36.367188 44.292969 36.128906 45.316406 36.128906 C 46.578125 36.128906 47.863281 36.402344 49.164062 36.941406 L 49.933594 35.261719 C 48.417969 34.296875 46.722656 33.820312 44.871094 33.820312 C 43.066406 33.820312 41.601562 34.300781 40.460938 35.28125 C 39.328125 36.25 38.761719 37.519531 38.761719 39.105469 C 38.761719 41.011719 39.519531 42.167969 41.046875 43.253906 C 41.046875 43.253906 43.847656 44.820312 45.253906 45.570312 C 46.765625 46.398438 47.597656 47.386719 47.597656 48.546875 C 47.597656 49.46875 47.191406 50.195312 46.511719 50.714844 C 45.824219 51.234375 44.878906 51.492188 43.679688 51.492188 C 42.390625 51.492188 40.960938 51.113281 39.375 50.335938 L 38.519531 52.011719 C 40.359375 53.222656 42.242188 53.828125 44.207031 53.828125 C 46.308594 53.828125 47.96875 53.300781 49.210938 52.242188 C 50.457031 51.1875 51.078125 49.828125 51.078125 48.167969 L 51.101562 48.179688 C 51.101562 46.28125 50.324219 45.136719 48.757812 44.058594 Z M 48.757812 44.058594 "/>
<path style=" stroke:none;fill-rule:nonzero;fill:rgb(6.269836%,36.859131%,52.549744%);fill-opacity:1;" d="M 60.347656 7.0625 C 59.929688 7.0625 59.648438 7.113281 59.355469 7.179688 L 59.355469 7.226562 L 59.40625 7.226562 C 59.601562 7.59375 59.933594 7.859375 60.179688 8.1875 C 60.375 8.566406 60.542969 8.941406 60.738281 9.316406 L 60.789062 9.261719 C 61.128906 9.027344 61.292969 8.65625 61.292969 8.085938 C 61.148438 7.921875 61.128906 7.757812 61.003906 7.59375 C 60.859375 7.359375 60.546875 7.242188 60.351562 7.058594 Z M 60.347656 7.0625 "/>
<path style=" stroke:none;fill-rule:nonzero;fill:rgb(6.269836%,36.859131%,52.549744%);fill-opacity:1;" d="M 86.707031 33.742188 C 86.003906 32.828125 85.132812 32.027344 84.195312 31.363281 C 83.421875 30.847656 81.726562 30.125 81.410156 29.265625 L 81.363281 29.214844 C 81.890625 29.167969 82.519531 28.980469 83.027344 28.84375 C 83.847656 28.628906 84.597656 28.675781 85.449219 28.46875 C 85.832031 28.375 86.21875 28.257812 86.605469 28.136719 L 86.605469 27.925781 C 86.171875 27.503906 85.847656 26.929688 85.398438 26.535156 C 84.167969 25.492188 82.804688 24.484375 81.40625 23.632812 C 80.648438 23.160156 79.683594 22.859375 78.886719 22.457031 C 78.597656 22.316406 78.113281 22.246094 77.945312 22.007812 C 77.511719 21.492188 77.257812 20.808594 76.949219 20.195312 C 76.257812 18.898438 75.578125 17.464844 74.972656 16.09375 C 74.539062 15.171875 74.273438 14.253906 73.742188 13.40625 C 71.25 9.402344 68.546875 6.972656 64.390625 4.597656 C 63.5 4.105469 62.429688 3.894531 61.296875 3.632812 C 60.691406 3.605469 60.089844 3.5625 59.488281 3.535156 C 59.089844 3.371094 58.707031 2.921875 58.367188 2.707031 C 56.992188 1.859375 53.4375 0.0273438 52.421875 2.453125 C 51.773438 3.980469 53.390625 5.488281 53.949219 6.265625 C 54.363281 6.800781 54.890625 7.417969 55.179688 8.027344 C 55.347656 8.433594 55.394531 8.855469 55.566406 9.28125 C 55.949219 10.320312 56.3125 11.472656 56.820312 12.445312 C 57.085938 12.9375 57.375 13.457031 57.714844 13.898438 C 57.910156 14.15625 58.242188 14.277344 58.316406 14.699219 C 57.976562 15.179688 57.957031 15.875 57.761719 16.460938 C 56.894531 19.128906 57.234375 22.425781 58.460938 24.390625 C 58.847656 24.976562 59.769531 26.273438 61.003906 25.777344 C 62.089844 25.351562 61.851562 24.015625 62.160156 22.832031 C 62.234375 22.550781 62.1875 22.363281 62.335938 22.171875 L 62.335938 22.226562 C 62.675781 22.890625 63.015625 23.519531 63.324219 24.183594 C 64.070312 25.339844 65.371094 26.539062 66.460938 27.335938 C 67.039062 27.761719 67.5 28.492188 68.222656 28.753906 L 68.222656 28.683594 L 68.167969 28.683594 C 68.011719 28.480469 67.804688 28.382812 67.609375 28.214844 C 67.175781 27.789062 66.6875 27.273438 66.34375 26.804688 C 65.332031 25.476562 64.441406 24.015625 63.644531 22.511719 C 63.246094 21.769531 62.914062 20.972656 62.59375 20.246094 C 62.449219 19.964844 62.449219 19.542969 62.207031 19.398438 C 61.847656 19.910156 61.316406 20.359375 61.050781 20.996094 C 60.59375 22.011719 60.546875 23.257812 60.371094 24.554688 C 60.273438 24.582031 60.320312 24.554688 60.273438 24.605469 C 59.5 24.421875 59.234375 23.640625 58.945312 22.984375 C 58.222656 21.3125 58.105469 18.621094 58.730469 16.691406 C 58.898438 16.199219 59.621094 14.640625 59.332031 14.167969 C 59.183594 13.71875 58.703125 13.464844 58.441406 13.101562 C 58.125 12.664062 57.789062 12.097656 57.574219 11.597656 C 56.992188 10.28125 56.703125 8.820312 56.074219 7.503906 C 55.785156 6.890625 55.28125 6.253906 54.867188 5.691406 C 54.410156 5.058594 53.902344 4.613281 53.535156 3.859375 C 53.417969 3.601562 53.246094 3.171875 53.4375 2.894531 C 53.488281 2.703125 53.589844 2.628906 53.777344 2.578125 C 54.097656 2.324219 54.992188 2.65625 55.304688 2.796875 C 56.199219 3.148438 56.949219 3.476562 57.699219 3.972656 C 58.039062 4.207031 58.402344 4.652344 58.839844 4.769531 L 59.34375 4.769531 C 60.117188 4.9375 60.988281 4.820312 61.714844 5.027344 C 62.996094 5.429688 64.152344 6.015625 65.191406 6.652344 C 68.359375 8.609375 70.960938 11.390625 72.730469 14.707031 C 73.019531 15.25 73.148438 15.746094 73.410156 16.3125 C 73.917969 17.472656 74.542969 18.648438 75.054688 19.769531 C 75.5625 20.878906 76.050781 22.015625 76.777344 22.933594 C 77.140625 23.425781 78.59375 23.683594 79.242188 23.941406 C 79.722656 24.152344 80.472656 24.347656 80.90625 24.605469 C 81.738281 25.097656 82.546875 25.664062 83.328125 26.207031 C 83.726562 26.476562 84.933594 27.066406 85.003906 27.539062 C 83.070312 27.488281 81.570312 27.679688 80.3125 28.203125 C 79.953125 28.34375 79.375 28.34375 79.324219 28.792969 C 79.523438 28.976562 79.550781 29.285156 79.722656 29.546875 C 80.011719 30.015625 80.507812 30.648438 80.972656 30.980469 C 81.476562 31.367188 81.984375 31.742188 82.515625 32.074219 C 83.457031 32.636719 84.523438 32.96875 85.445312 33.535156 C 85.96875 33.867188 86.503906 34.289062 87.035156 34.640625 C 87.300781 34.816406 87.46875 35.132812 87.808594 35.246094 L 87.808594 35.175781 C 87.644531 34.964844 87.59375 34.660156 87.429688 34.421875 C 87.1875 34.1875 86.945312 33.976562 86.707031 33.742188 Z M 86.707031 33.742188 "/>
</g>
</svg>
