<?xml version="1.0" encoding="UTF-8"?>
<svg xmlns="http://www.w3.org/2000/svg" xmlns:xlink="http://www.w3.org/1999/xlink" width="153.75pt" height="149.999998pt" viewBox="0 0 153.75 149.999998" version="1.2">
<defs>
<clipPath id="clip1">
  <path d="M 2 0.265625 L 109 0.265625 L 109 115 L 2 115 Z M 2 0.265625 "/>
</clipPath>
<clipPath id="clip2">
  <path d="M 45 35 L 152 35 L 152 149.878906 L 45 149.878906 Z M 45 35 "/>
</clipPath>
</defs>
<g id="surface1">
<g clip-path="url(#clip1)" clip-rule="nonzero">
<path style=" stroke:none;fill-rule:nonzero;fill:rgb(0.779724%,46.669006%,74.119568%);fill-opacity:1;" d="M 78.832031 0.265625 C 72.707031 0.285156 68.460938 0.828125 63.328125 1.714844 C 48.167969 4.367188 45.40625 9.929688 45.40625 20.1875 L 45.40625 35.859375 L 80.863281 35.859375 L 80.863281 43.769531 L 26.921875 43.769531 C 16.535156 43.769531 7.445312 48.683594 4.566406 60.457031 C 1.3125 73.972656 1.167969 82.4375 4.566406 96.546875 C 7.148438 107.070312 12.832031 114.960938 23.222656 114.960938 L 37.53125 114.960938 L 37.53125 94.777344 C 37.53125 83.042969 48.113281 71.457031 60.238281 71.457031 L 88.746094 71.457031 C 98.683594 71.457031 108.445312 64.09375 108.445312 54.144531 L 108.445312 20.1875 C 108.445312 10.539062 101.511719 3.324219 91.824219 1.707031 C 92.066406 1.683594 84.90625 0.242188 78.832031 0.265625 Z M 59.199219 16.085938 C 62.433594 16.085938 65.105469 18.761719 65.105469 22.027344 C 65.105469 25.320312 62.433594 27.949219 59.199219 27.949219 C 55.898438 27.949219 53.289062 25.324219 53.289062 22.027344 C 53.289062 18.773438 55.898438 16.085938 59.199219 16.085938 Z M 59.199219 16.085938 "/>
</g>
<g clip-path="url(#clip2)" clip-rule="nonzero">
<path style=" stroke:none;fill-rule:nonzero;fill:rgb(100%,75.689697%,2.749634%);fill-opacity:1;" d="M 75.015625 150.558594 C 81.140625 150.539062 85.386719 149.996094 90.523438 149.105469 C 105.683594 146.457031 108.445312 140.890625 108.445312 130.636719 L 108.445312 114.960938 L 72.988281 114.960938 L 72.988281 107.050781 L 126.933594 107.050781 C 137.316406 107.050781 146.40625 102.140625 149.285156 90.367188 C 152.539062 76.851562 152.6875 68.386719 149.285156 54.277344 C 146.703125 43.75 141.015625 35.859375 130.628906 35.859375 L 116.320312 35.859375 L 116.320312 56.046875 C 116.320312 67.777344 105.738281 79.367188 93.609375 79.367188 L 65.101562 79.367188 C 55.164062 79.367188 45.40625 86.730469 45.40625 96.679688 L 45.40625 130.636719 C 45.40625 140.28125 52.335938 147.496094 62.023438 149.113281 C 61.78125 149.136719 68.941406 150.582031 75.015625 150.558594 Z M 94.65625 134.738281 C 91.421875 134.738281 88.746094 132.058594 88.746094 128.796875 C 88.746094 125.503906 91.421875 122.871094 94.65625 122.871094 C 97.953125 122.871094 100.5625 125.5 100.5625 128.796875 C 100.5625 132.046875 97.949219 134.738281 94.65625 134.738281 Z M 94.65625 134.738281 "/>
</g>
</g>
</svg>
