<?xml version="1.0" encoding="UTF-8"?>
<svg xmlns="http://www.w3.org/2000/svg" xmlns:xlink="http://www.w3.org/1999/xlink" width="150pt" height="149.999998pt" viewBox="0 0 150 149.999998" version="1.2">
<g id="surface1">
<path style=" stroke:none;fill-rule:nonzero;fill:rgb(87.059021%,29.798889%,21.179199%);fill-opacity:1;" d="M 146.277344 68.398438 L 81.597656 3.722656 C 77.875 -0.00390625 71.835938 -0.00390625 68.109375 3.71875 L 54.671875 17.152344 L 71.714844 34.191406 C 75.671875 32.851562 80.214844 33.75 83.367188 36.90625 C 86.539062 40.082031 87.429688 44.664062 86.058594 48.632812 L 102.484375 65.058594 C 106.453125 63.6875 111.035156 64.570312 114.214844 67.75 C 118.644531 72.183594 118.644531 79.371094 114.214844 83.800781 C 109.773438 88.242188 102.59375 88.242188 98.152344 83.800781 C 94.816406 80.464844 93.992188 75.566406 95.683594 71.457031 L 80.371094 56.144531 L 80.363281 96.441406 C 81.445312 96.980469 82.464844 97.691406 83.367188 98.589844 C 87.800781 103.019531 87.800781 110.207031 83.367188 114.648438 C 78.933594 119.082031 71.742188 119.082031 67.316406 114.648438 C 62.882812 110.207031 62.882812 103.019531 67.316406 98.589844 C 68.410156 97.496094 69.675781 96.667969 71.03125 96.113281 L 71.03125 55.4375 C 69.675781 54.886719 68.414062 54.0625 67.316406 52.960938 C 63.953125 49.605469 63.148438 44.675781 64.867188 40.550781 L 48.074219 23.75 L 3.722656 68.101562 C -0.00390625 71.828125 -0.00390625 77.871094 3.722656 81.597656 L 68.402344 146.277344 C 72.128906 150 78.171875 150 81.898438 146.277344 L 146.28125 81.898438 C 150.007812 78.171875 150.007812 72.125 146.28125 68.398438 "/>
</g>
</svg>
