<?xml version="1.0" encoding="UTF-8"?>
<svg xmlns="http://www.w3.org/2000/svg" xmlns:xlink="http://www.w3.org/1999/xlink" width="315pt" height="359.999987pt" viewBox="0 0 315 359.999987" version="1.2">
<g id="surface1">
<path style=" stroke:none;fill-rule:nonzero;fill:rgb(54.899597%,75.289917%,24.308777%);fill-opacity:1;" d="M 118.871094 315.589844 C 109.667969 320.921875 107.921875 321.550781 99.273438 324.613281 C 97.179688 325.328125 94.015625 326.597656 100.46875 330.304688 L 143.789062 356.265625 C 147.925781 358.699219 152.703125 359.96875 157.410156 359.96875 L 157.441406 360 C 162.207031 360 166.910156 358.714844 171.046875 356.296875 L 300.738281 280.457031 C 309.164062 275.480469 314.363281 266.296875 314.363281 256.480469 L 314.363281 104.894531 C 314.363281 95.003906 309.179688 85.816406 300.738281 80.917969 L 171.046875 5.003906 C 162.90625 0.3125 152.019531 0.3125 143.800781 5.003906 L 14.261719 80.84375 C 5.851562 85.757812 0.652344 95.003906 0.652344 104.816406 L 0.652344 256.40625 C 0.652344 266.296875 5.835938 275.480469 14.261719 280.382812 L 48.246094 300.234375 C 64.675781 308.496094 70.5625 308.496094 78.074219 308.496094 C 102.4375 308.496094 116.480469 293.558594 116.480469 267.519531 L 116.480469 117.785156 C 116.480469 115.664062 114.734375 114.019531 112.6875 114.019531 L 96.253906 114.019531 C 94.148438 114.019531 92.460938 115.648438 92.460938 117.785156 L 92.460938 267.445312 C 92.460938 279.039062 80.660156 290.496094 61.34375 280.753906 L 25.824219 259.976562 C 24.582031 259.335938 23.808594 257.914062 23.808594 256.480469 L 23.808594 104.894531 C 23.808594 103.414062 24.582031 101.980469 25.839844 101.261719 L 155.378906 25.425781 C 156.558594 24.707031 158.1875 24.707031 159.382812 25.425781 L 288.996094 101.1875 C 290.25 101.964844 291.027344 103.324219 291.027344 104.816406 L 291.027344 256.480469 C 291.027344 257.886719 290.265625 259.320312 289.070312 260.035156 L 159.382812 335.875 C 158.261719 336.59375 156.574219 336.59375 155.378906 335.875 L 122.097656 315.890625 C 121.113281 315.246094 119.855469 315.023438 118.871094 315.589844 Z M 118.871094 315.589844 "/>
<path style=" stroke:none;fill-rule:nonzero;fill:rgb(54.899597%,75.289917%,24.308777%);fill-opacity:1;" d="M 197.445312 232.566406 C 163.117188 232.566406 155.589844 223.8125 153.078125 206.53125 C 152.792969 204.675781 151.257812 203.332031 149.359375 203.332031 L 132.582031 203.332031 C 130.476562 203.332031 128.863281 205.035156 128.863281 207.097656 C 128.863281 229.21875 140.726562 255.613281 197.519531 255.613281 C 238.507812 255.539062 262.125 239.125 262.125 210.519531 L 262.078125 210.53125 C 262.078125 182.152344 243.125 174.609375 203.3125 169.273438 C 163.011719 163.867188 158.949219 161.089844 158.949219 151.558594 C 158.949219 143.671875 162.398438 133.140625 192.230469 133.140625 C 218.847656 133.140625 228.679688 138.964844 232.742188 157.175781 C 233.085938 158.894531 234.636719 160.164062 236.402344 160.164062 L 253.25 160.164062 C 254.296875 160.164062 255.28125 159.746094 255.984375 158.953125 C 256.6875 158.160156 257.03125 157.101562 256.96875 156.039062 C 254.371094 124.671875 233.800781 110.089844 192.230469 110.089844 C 155.230469 110.089844 133.179688 125.894531 133.179688 152.410156 C 133.179688 181.148438 155.15625 189.125 190.617188 192.667969 C 233.101562 196.878906 236.386719 203.199219 236.386719 211.667969 C 236.417969 226.320312 224.765625 232.566406 197.445312 232.566406 Z M 197.445312 232.566406 "/>
</g>
</svg>
