<?xml version="1.0" encoding="UTF-8"?>
<svg xmlns="http://www.w3.org/2000/svg" xmlns:xlink="http://www.w3.org/1999/xlink" width="255pt" height="284.999983pt" viewBox="0 0 255 284.999983" version="1.2">
<defs>
<clipPath id="clip1">
  <path d="M 2.617188 0 L 252.355469 0 L 252.355469 285 L 2.617188 285 Z M 2.617188 0 "/>
</clipPath>
</defs>
<g id="surface1">
<g clip-path="url(#clip1)" clip-rule="nonzero">
<path style=" stroke:none;fill-rule:nonzero;fill:rgb(89.408875%,30.198669%,14.898682%);fill-opacity:1;" d="M 25.289062 255.882812 L 2.546875 0.800781 L 252.425781 0.800781 L 229.667969 255.847656 L 127.328125 284.207031 Z M 25.289062 255.882812 "/>
</g>
<path style=" stroke:none;fill-rule:nonzero;fill:rgb(94.509888%,39.608765%,16.079712%);fill-opacity:1;" d="M 210.175781 239.605469 L 229.632812 21.65625 L 127.488281 21.65625 L 127.488281 262.535156 Z M 210.175781 239.605469 "/>
<path style=" stroke:none;fill-rule:nonzero;fill:rgb(92.158508%,92.158508%,92.158508%);fill-opacity:1;" d="M 127.382812 52.941406 L 49.042969 52.941406 L 57.480469 147.546875 L 127.488281 147.546875 L 127.488281 116.265625 L 86.09375 116.265625 L 83.234375 84.230469 L 127.488281 84.230469 L 127.488281 52.941406 Z M 127.488281 197.414062 L 127.355469 197.449219 L 92.515625 188.042969 L 90.300781 163.09375 L 58.878906 163.09375 L 63.265625 212.210938 L 127.34375 229.925781 L 127.488281 229.882812 Z M 127.488281 197.414062 "/>
<path style=" stroke:none;fill-rule:nonzero;fill:rgb(100%,100%,100%);fill-opacity:1;" d="M 127.382812 147.546875 L 165.90625 147.546875 L 162.363281 188.113281 L 127.46875 197.527344 L 127.46875 230.074219 L 191.605469 212.300781 L 200.195312 116.25 L 127.488281 116.25 Z M 204.996094 61.335938 L 205.738281 52.941406 L 127.363281 52.941406 L 127.363281 84.222656 L 202.921875 84.222656 L 203.542969 77.191406 Z M 204.996094 61.335938 "/>
</g>
</svg>
